# xmcd
#
# Track frame offsets: 
#        150
#        20182
#        44519
#        66419
#        84384
#        99614
#        124639
#        140325
#        170596
#        185299
#
# Disc length: 2729 seconds
#
# Revision: 0
# Processed by: cddbd v1.5.2PL0 Copyright (c) Steve Scherf et al.
# Submitted via: ExactAudioCopy v1.0b4
#
DISCID=8b0aa70a
DTITLE=Patrick Williams and His Blues Xpress - Big Easy Blues
DYEAR=2014
DGENRE=Blues
TTITLE0=Pride and Joy
TTITLE1=I'll Play The Blues For You
TTITLE2=Everyday I Have The Blues
TTITLE3=Already Gone
TTITLE4=Killing Floor
TTITLE5=Little Wing
TTITLE6=Rock Me Baby
TTITLE7=Double Trouble
TTITLE8=Big Leg Woman
TTITLE9=Crossroads
EXTD=
EXTT0=
EXTT1=
EXTT2=
EXTT3=
EXTT4=
EXTT5=
EXTT6=
EXTT7=
EXTT8=
EXTT9=
PLAYORDER=
